<mxfile host="app.diagrams.net" agent="Mozilla/5.0 (Macintosh; Intel Mac OS X 10_15_7) AppleWebKit/605.1.15 (KHTML, like Gecko) Version/16.6 Safari/605.1.15" version="24.7.17">
  <diagram name="Page-1" id="Ce6FABWEYobgr5swXm57">
    <mxGraphModel dx="954" dy="647" grid="1" gridSize="10" guides="1" tooltips="1" connect="1" arrows="1" fold="1" page="1" pageScale="1" pageWidth="850" pageHeight="1100" math="0" shadow="0">
      <root>
        <mxCell id="0" />
        <mxCell id="1" parent="0" />
        <mxCell id="lBcQuWdUGkiD3QJIwNUf-5" style="edgeStyle=orthogonalEdgeStyle;rounded=0;orthogonalLoop=1;jettySize=auto;html=1;entryX=0.5;entryY=0;entryDx=0;entryDy=0;" edge="1" parent="1" source="lBcQuWdUGkiD3QJIwNUf-1" target="lBcQuWdUGkiD3QJIwNUf-4">
          <mxGeometry relative="1" as="geometry" />
        </mxCell>
        <mxCell id="lBcQuWdUGkiD3QJIwNUf-1" value="enter number" style="rounded=0;whiteSpace=wrap;html=1;" vertex="1" parent="1">
          <mxGeometry x="340" y="240" width="120" height="60" as="geometry" />
        </mxCell>
        <mxCell id="lBcQuWdUGkiD3QJIwNUf-3" style="edgeStyle=orthogonalEdgeStyle;rounded=0;orthogonalLoop=1;jettySize=auto;html=1;entryX=0.5;entryY=0;entryDx=0;entryDy=0;" edge="1" parent="1" source="lBcQuWdUGkiD3QJIwNUf-2" target="lBcQuWdUGkiD3QJIwNUf-1">
          <mxGeometry relative="1" as="geometry" />
        </mxCell>
        <mxCell id="lBcQuWdUGkiD3QJIwNUf-2" value="START" style="ellipse;whiteSpace=wrap;html=1;" vertex="1" parent="1">
          <mxGeometry x="340" y="100" width="120" height="80" as="geometry" />
        </mxCell>
        <mxCell id="lBcQuWdUGkiD3QJIwNUf-7" style="edgeStyle=orthogonalEdgeStyle;rounded=0;orthogonalLoop=1;jettySize=auto;html=1;entryX=0.5;entryY=0;entryDx=0;entryDy=0;" edge="1" parent="1" source="lBcQuWdUGkiD3QJIwNUf-4" target="lBcQuWdUGkiD3QJIwNUf-6">
          <mxGeometry relative="1" as="geometry" />
        </mxCell>
        <mxCell id="lBcQuWdUGkiD3QJIwNUf-4" value="divide number by 2" style="shape=parallelogram;perimeter=parallelogramPerimeter;whiteSpace=wrap;html=1;fixedSize=1;" vertex="1" parent="1">
          <mxGeometry x="340" y="360" width="120" height="60" as="geometry" />
        </mxCell>
        <mxCell id="lBcQuWdUGkiD3QJIwNUf-8" style="edgeStyle=orthogonalEdgeStyle;rounded=0;orthogonalLoop=1;jettySize=auto;html=1;" edge="1" parent="1" source="lBcQuWdUGkiD3QJIwNUf-6">
          <mxGeometry relative="1" as="geometry">
            <mxPoint x="230" y="520" as="targetPoint" />
          </mxGeometry>
        </mxCell>
        <mxCell id="lBcQuWdUGkiD3QJIwNUf-9" style="edgeStyle=orthogonalEdgeStyle;rounded=0;orthogonalLoop=1;jettySize=auto;html=1;" edge="1" parent="1" source="lBcQuWdUGkiD3QJIwNUf-6">
          <mxGeometry relative="1" as="geometry">
            <mxPoint x="570" y="520" as="targetPoint" />
          </mxGeometry>
        </mxCell>
        <mxCell id="lBcQuWdUGkiD3QJIwNUf-6" value="if there are decimals" style="rounded=0;whiteSpace=wrap;html=1;" vertex="1" parent="1">
          <mxGeometry x="340" y="490" width="120" height="60" as="geometry" />
        </mxCell>
        <mxCell id="lBcQuWdUGkiD3QJIwNUf-16" style="edgeStyle=orthogonalEdgeStyle;rounded=0;orthogonalLoop=1;jettySize=auto;html=1;entryX=0;entryY=0.5;entryDx=0;entryDy=0;" edge="1" parent="1" source="lBcQuWdUGkiD3QJIwNUf-10" target="lBcQuWdUGkiD3QJIwNUf-12">
          <mxGeometry relative="1" as="geometry" />
        </mxCell>
        <mxCell id="lBcQuWdUGkiD3QJIwNUf-10" value="no = number is even" style="rounded=0;whiteSpace=wrap;html=1;" vertex="1" parent="1">
          <mxGeometry x="110" y="490" width="120" height="60" as="geometry" />
        </mxCell>
        <mxCell id="lBcQuWdUGkiD3QJIwNUf-17" style="edgeStyle=orthogonalEdgeStyle;rounded=0;orthogonalLoop=1;jettySize=auto;html=1;entryX=1;entryY=0.5;entryDx=0;entryDy=0;" edge="1" parent="1" source="lBcQuWdUGkiD3QJIwNUf-11" target="lBcQuWdUGkiD3QJIwNUf-12">
          <mxGeometry relative="1" as="geometry" />
        </mxCell>
        <mxCell id="lBcQuWdUGkiD3QJIwNUf-11" value="yes = number is odd" style="rounded=0;whiteSpace=wrap;html=1;" vertex="1" parent="1">
          <mxGeometry x="570" y="490" width="120" height="60" as="geometry" />
        </mxCell>
        <mxCell id="lBcQuWdUGkiD3QJIwNUf-12" value="STOP" style="ellipse;whiteSpace=wrap;html=1;" vertex="1" parent="1">
          <mxGeometry x="340" y="580" width="120" height="80" as="geometry" />
        </mxCell>
      </root>
    </mxGraphModel>
  </diagram>
</mxfile>
